<svg width="113" height="32" fill="none" xmlns="http://www.w3.org/2000/svg"><path d="M7.87 24.74v4.62c0 .893-.22 1.553-.66 1.98-.433.433-1.09.65-1.97.65-.487 0-.95-.073-1.39-.22-.433-.14-.787-.337-1.06-.59l.36-.54c.253.227.56.403.92.53.367.127.75.19 1.15.19.667 0 1.157-.157 1.47-.47.313-.307.47-.787.47-1.44v-.67c-.22.333-.51.587-.87.76-.353.173-.747.26-1.18.26-.493 0-.943-.107-1.35-.32-.4-.22-.717-.523-.95-.91a2.615 2.615 0 01-.34-1.33c0-.493.113-.933.34-1.32.233-.387.55-.687.95-.9.4-.213.85-.32 1.35-.32.447 0 .85.09 1.21.27.36.18.65.44.87.78v-1.01h.68zm-2.69 4.43c.38 0 .723-.08 1.03-.24a1.77 1.77 0 00.71-.69c.173-.293.26-.627.26-1s-.087-.703-.26-.99a1.704 1.704 0 00-.71-.68 2.08 2.08 0 00-1.03-.25c-.38 0-.723.08-1.03.24-.3.16-.537.387-.71.68-.167.293-.25.627-.25 1s.083.707.25 1c.173.293.41.523.71.69.307.16.65.24 1.03.24zm9.345-4.43V30h-.68v-.96a1.99 1.99 0 01-.77.75c-.327.173-.7.26-1.12.26-.694 0-1.24-.19-1.64-.57-.394-.387-.59-.95-.59-1.69v-3.05h.71v2.98c0 .553.136.973.41 1.26.273.287.666.43 1.18.43.553 0 .99-.167 1.31-.5.32-.34.48-.81.48-1.41v-2.76h.71zm4.473 2.52c.373.087.66.237.86.45.206.213.31.473.31.78a1.2 1.2 0 01-.32.82c-.207.24-.49.427-.85.56-.36.127-.757.19-1.19.19-.38 0-.754-.053-1.12-.16a2.969 2.969 0 01-.96-.49l.24-.53c.24.18.52.32.84.42.32.1.643.15.97.15.486 0 .883-.09 1.19-.27.313-.187.47-.437.47-.75 0-.28-.127-.497-.38-.65-.254-.16-.6-.24-1.04-.24h-.9v-.52h.86c.393 0 .71-.073.95-.22.24-.153.36-.357.36-.61 0-.28-.137-.5-.41-.66-.267-.16-.617-.24-1.05-.24-.567 0-1.127.143-1.68.43l-.2-.55a4.167 4.167 0 011.95-.49c.4 0 .76.06 1.08.18.326.113.58.277.76.49.186.213.28.46.28.74 0 .267-.094.503-.28.71-.18.207-.427.36-.74.46zm7.561-2.52V30h-.68v-1.04a2.156 2.156 0 01-.85.81c-.346.187-.74.28-1.18.28a2.67 2.67 0 01-1.34-.34 2.43 2.43 0 01-.94-.95 2.807 2.807 0 01-.34-1.39c0-.52.114-.983.34-1.39.227-.407.54-.72.94-.94.4-.227.847-.34 1.34-.34.427 0 .81.09 1.15.27.347.173.63.43.85.77v-1h.71zm-2.65 4.68c.367 0 .697-.083.99-.25.3-.173.534-.417.7-.73.174-.313.26-.67.26-1.07s-.086-.757-.26-1.07a1.736 1.736 0 00-.7-.72 1.91 1.91 0 00-.99-.26c-.373 0-.71.087-1.01.26a1.821 1.821 0 00-.7.72c-.166.313-.25.67-.25 1.07s.084.757.25 1.07a1.9 1.9 0 00.7.73c.3.167.637.25 1.01.25zm9.278-4.68V30h-.68v-.96a1.99 1.99 0 01-.77.75c-.327.173-.7.26-1.12.26-.694 0-1.24-.19-1.64-.57-.393-.387-.59-.95-.59-1.69v-3.05h.71v2.98c0 .553.136.973.41 1.26.273.287.666.43 1.18.43.553 0 .99-.167 1.31-.5.32-.34.48-.81.48-1.41v-2.76h.71zm-2.4-.75c-.453 0-.813-.113-1.08-.34-.267-.227-.404-.547-.41-.96h.51c.007.26.1.47.28.63.18.153.413.23.7.23s.52-.077.7-.23a.82.82 0 00.29-.63h.51c-.007.413-.147.733-.42.96-.267.227-.627.34-1.08.34zm4.42.75h.71v2.33h3.31v-2.33h.71V30h-.71v-2.32h-3.31V30h-.71v-5.26zm13.995 0V30h-.68v-.96c-.186.32-.443.57-.77.75-.326.173-.7.26-1.12.26-.693 0-1.24-.19-1.64-.57-.393-.387-.59-.95-.59-1.69v-3.05h.71v2.98c0 .553.137.973.41 1.26.274.287.667.43 1.18.43.554 0 .99-.167 1.31-.5.32-.34.48-.81.48-1.41v-2.76h.71zm2.02 0h.71v2.33h3.31v-2.33h.71V30h-.71v-2.32h-3.31V30h-.71v-5.26zm13.309-.04c.66 0 1.177.19 1.55.57.38.38.57.94.57 1.68V30h-.71v-2.98c0-.547-.133-.963-.4-1.25-.26-.287-.63-.43-1.11-.43-.547 0-.977.17-1.29.51-.313.333-.47.797-.47 1.39V30h-.71v-2.98c0-.547-.133-.963-.4-1.25-.26-.287-.633-.43-1.12-.43-.54 0-.97.17-1.29.51-.313.333-.47.797-.47 1.39V30h-.71v-5.26h.68v.96a1.9 1.9 0 01.78-.74c.333-.173.717-.26 1.15-.26.44 0 .82.093 1.14.28.327.187.57.463.73.83.193-.347.47-.617.83-.81.367-.2.783-.3 1.25-.3zm6.207 4.72c.327 0 .627-.057.9-.17a1.9 1.9 0 00.71-.52l.4.46a2.26 2.26 0 01-.87.64c-.347.147-.73.22-1.15.22-.54 0-1.02-.113-1.44-.34a2.513 2.513 0 01-.98-.96 2.723 2.723 0 01-.35-1.38c0-.513.11-.973.33-1.38a2.45 2.45 0 01.93-.95 2.63 2.63 0 011.34-.34c.467 0 .887.107 1.26.32.38.213.68.51.9.89.227.38.347.813.36 1.3l-4.32.84c.133.427.373.763.72 1.01.353.24.773.36 1.26.36zm-.18-4.11a1.91 1.91 0 00-.99.26 1.79 1.79 0 00-.68.71c-.16.3-.24.647-.24 1.04 0 .1.003.173.01.22l3.71-.72a1.8 1.8 0 00-.61-1.08c-.327-.287-.727-.43-1.2-.43zm6.405-.61c.514 0 .97.113 1.37.34.4.227.71.543.93.95.227.407.34.87.34 1.39 0 .52-.11.983-.33 1.39-.22.4-.526.713-.92.94a2.58 2.58 0 01-1.33.34c-.44 0-.833-.087-1.18-.26a2.189 2.189 0 01-.83-.77v2.92h-.71v-4.55c0-.527.11-.993.33-1.4a2.43 2.43 0 01.94-.95c.407-.227.87-.34 1.39-.34zm-.02 4.73c.374 0 .71-.087 1.01-.26.3-.173.534-.417.7-.73.167-.313.25-.667.25-1.06s-.083-.747-.25-1.06a1.802 1.802 0 00-.7-.73c-.3-.18-.636-.27-1.01-.27-.373 0-.71.087-1.01.26a1.822 1.822 0 00-.69.73c-.16.307-.24.66-.24 1.06s.08.757.24 1.07c.167.313.397.557.69.73.3.173.637.26 1.01.26zm6.312.68c-.72 0-1.277-.18-1.67-.54-.393-.36-.59-.863-.59-1.51v-3.32h.71v2.19c.173-.207.41-.37.71-.49a2.78 2.78 0 011.02-.18c.653 0 1.16.167 1.52.5.367.333.55.78.55 1.34 0 .607-.2 1.093-.6 1.46-.4.367-.95.55-1.65.55zm.01-.55c.473 0 .843-.133 1.11-.4.273-.267.41-.613.41-1.04 0-.4-.133-.72-.4-.96s-.643-.36-1.13-.36c-.36 0-.677.073-.95.22a1.43 1.43 0 00-.6.61v.48c0 .453.137.81.41 1.07.28.253.663.38 1.15.38zm5.852-.14c.327 0 .627-.057.9-.17a1.9 1.9 0 00.71-.52l.4.46c-.233.28-.523.493-.87.64-.347.147-.73.22-1.15.22-.54 0-1.02-.113-1.44-.34a2.512 2.512 0 01-.98-.96 2.722 2.722 0 01-.35-1.38c0-.513.11-.973.33-1.38a2.45 2.45 0 01.93-.95 2.63 2.63 0 011.34-.34c.467 0 .887.107 1.26.32.38.213.68.51.9.89.227.38.347.813.36 1.3l-4.32.84c.133.427.373.763.72 1.01.353.24.773.36 1.26.36zm-.18-4.11a1.91 1.91 0 00-.99.26 1.79 1.79 0 00-.68.71c-.16.3-.24.647-.24 1.04 0 .1.003.173.01.22l3.71-.72a1.8 1.8 0 00-.61-1.08c-.327-.287-.727-.43-1.2-.43zm6.405-.61c.513 0 .97.113 1.37.34.4.227.71.543.93.95.227.407.34.87.34 1.39 0 .52-.11.983-.33 1.39-.22.4-.527.713-.92.94a2.58 2.58 0 01-1.33.34c-.44 0-.833-.087-1.18-.26a2.189 2.189 0 01-.83-.77v2.92h-.71v-4.55c0-.527.11-.993.33-1.4a2.43 2.43 0 01.94-.95c.407-.227.87-.34 1.39-.34zm-.02 4.73c.373 0 .71-.087 1.01-.26.3-.173.533-.417.7-.73.167-.313.25-.667.25-1.06s-.083-.747-.25-1.06a1.802 1.802 0 00-.7-.73c-.3-.18-.637-.27-1.01-.27s-.71.087-1.01.26a1.822 1.822 0 00-.69.73c-.16.307-.24.66-.24 1.06s.08.757.24 1.07c.167.313.397.557.69.73.3.173.637.26 1.01.26zm6.362.62c-.507 0-.963-.113-1.37-.34a2.551 2.551 0 01-.96-.96 2.723 2.723 0 01-.35-1.38c0-.513.117-.973.35-1.38a2.48 2.48 0 01.96-.95c.407-.227.863-.34 1.37-.34.507 0 .963.113 1.37.34.407.227.723.543.95.95.233.407.35.867.35 1.38 0 .513-.117.973-.35 1.38a2.48 2.48 0 01-.95.96c-.407.227-.863.34-1.37.34zm0-.63c.373 0 .707-.083 1-.25.3-.173.533-.417.7-.73.167-.313.25-.67.25-1.07s-.083-.757-.25-1.07a1.738 1.738 0 00-.7-.72 1.928 1.928 0 00-1-.26c-.373 0-.71.087-1.01.26a1.821 1.821 0 00-.7.72c-.167.313-.25.67-.25 1.07s.083.757.25 1.07c.173.313.407.557.7.73.3.167.637.25 1.01.25zm7.537-2.14c.714.167 1.07.597 1.07 1.29 0 .46-.17.813-.51 1.06-.34.247-.846.37-1.52.37h-2.39v-5.26h2.32c.6 0 1.07.117 1.41.35.34.233.51.567.51 1 0 .287-.08.533-.24.74-.153.2-.37.35-.65.45zm-2.66-.2h1.58c.407 0 .717-.077.93-.23.22-.153.33-.377.33-.67 0-.293-.11-.513-.33-.66-.213-.147-.523-.22-.93-.22h-1.58v1.78zm1.67 2.36c.454 0 .794-.073 1.02-.22.227-.147.34-.377.34-.69 0-.313-.103-.543-.31-.69-.206-.153-.533-.23-.98-.23h-1.74v1.83h1.67zM4.665 14.15c-.81 0-1.595-.115-2.355-.345-.75-.23-1.345-.535-1.785-.915l.675-1.515c.43.34.955.62 1.575.84.63.21 1.26.315 1.89.315.78 0 1.36-.125 1.74-.375.39-.25.585-.58.585-.99 0-.3-.11-.545-.33-.735-.21-.2-.48-.355-.81-.465-.33-.11-.78-.235-1.35-.375-.8-.19-1.45-.38-1.95-.57a3.302 3.302 0 01-1.275-.885c-.35-.41-.525-.96-.525-1.65 0-.58.155-1.105.465-1.575.32-.48.795-.86 1.425-1.14.64-.28 1.42-.42 2.34-.42.64 0 1.27.08 1.89.24.62.16 1.155.39 1.605.69L7.86 5.795c-.46-.27-.94-.475-1.44-.615s-.985-.21-1.455-.21c-.77 0-1.345.13-1.725.39-.37.26-.555.605-.555 1.035 0 .3.105.545.315.735.22.19.495.34.825.45.33.11.78.235 1.35.375.78.18 1.42.37 1.92.57.5.19.925.485 1.275.885.36.4.54.94.54 1.62 0 .58-.16 1.105-.48 1.575-.31.47-.785.845-1.425 1.125s-1.42.42-2.34.42zm5.999-8.16h1.875V14h-1.875V5.99zm.945-1.32a1.22 1.22 0 01-.855-.315c-.23-.22-.345-.49-.345-.81 0-.32.115-.585.345-.795.23-.22.515-.33.855-.33.34 0 .625.105.855.315.23.2.345.455.345.765 0 .33-.115.61-.345.84-.22.22-.505.33-.855.33zm13.5 1.23c1.01 0 1.81.295 2.4.885.59.58.886 1.455.886 2.625V14H26.52V9.65c0-.7-.155-1.225-.465-1.575-.31-.36-.756-.54-1.335-.54-.63 0-1.136.21-1.515.63-.38.41-.57 1-.57 1.77V14h-1.876V9.65c0-.7-.154-1.225-.465-1.575-.31-.36-.755-.54-1.335-.54-.64 0-1.15.205-1.53.615-.37.41-.554 1.005-.554 1.785V14h-1.876V5.99h1.786v1.02c.3-.36.674-.635 1.125-.825.45-.19.95-.285 1.5-.285.6 0 1.13.115 1.59.345.47.22.84.55 1.11.99.33-.42.755-.745 1.274-.975.52-.24 1.096-.36 1.726-.36zm10.121 0c.78 0 1.476.17 2.086.51.62.34 1.104.82 1.454 1.44.35.62.525 1.335.525 2.145s-.175 1.53-.525 2.16c-.35.62-.835 1.1-1.455 1.44-.61.34-1.304.51-2.084.51-1.08 0-1.936-.36-2.566-1.08v3.885h-1.874V5.99h1.784v1.05c.31-.38.69-.665 1.14-.855A3.93 3.93 0 0135.23 5.9zm-.21 6.6c.69 0 1.255-.23 1.695-.69.45-.46.675-1.065.675-1.815s-.224-1.355-.675-1.815c-.44-.46-1.005-.69-1.695-.69-.45 0-.855.105-1.215.315-.36.2-.645.49-.855.87-.21.38-.315.82-.315 1.32 0 .5.105.94.316 1.32.21.38.495.675.855.885.36.2.765.3 1.215.3zm8.694 1.605c-.83 0-1.48-.225-1.95-.675-.46-.46-.69-1.105-.69-1.935V2.87h1.875v8.49c0 .8.375 1.2 1.125 1.2.25 0 .475-.05.675-.15l.09 1.5c-.35.13-.725.195-1.125.195zm6.062-1.59c.87 0 1.595-.29 2.175-.87l.99 1.155c-.35.43-.8.755-1.35.975-.55.22-1.17.33-1.86.33-.88 0-1.655-.175-2.325-.525a3.848 3.848 0 01-1.56-1.455c-.36-.63-.54-1.34-.54-2.13 0-.78.175-1.48.525-2.1.36-.63.85-1.12 1.47-1.47.63-.35 1.34-.525 2.13-.525.75 0 1.43.165 2.04.495.62.32 1.11.785 1.47 1.395.36.6.54 1.305.54 2.115l-6.135 1.2c.19.46.495.81.915 1.05.42.24.925.36 1.515.36zM49.431 7.4c-.69 0-1.25.225-1.68.675-.42.45-.63 1.055-.63 1.815v.015l4.53-.87a2.118 2.118 0 00-.795-1.185c-.39-.3-.865-.45-1.425-.45z" fill="#000"/><path d="M59.608 3.5h4.59c1.12 0 2.115.22 2.985.66a4.766 4.766 0 012.025 1.845c.48.79.72 1.705.72 2.745s-.24 1.96-.72 2.76c-.48.79-1.155 1.405-2.025 1.845-.87.43-1.865.645-2.985.645h-4.59V3.5zm4.5 8.85c.77 0 1.445-.145 2.025-.435.59-.3 1.04-.72 1.35-1.26.32-.55.48-1.185.48-1.905s-.16-1.35-.48-1.89c-.31-.55-.76-.97-1.35-1.26-.58-.3-1.255-.45-2.025-.45h-2.55v7.2h2.55zm11.523.165c.87 0 1.595-.29 2.175-.87l.99 1.155c-.35.43-.8.755-1.35.975-.55.22-1.17.33-1.86.33-.88 0-1.655-.175-2.325-.525a3.848 3.848 0 01-1.56-1.455c-.36-.63-.54-1.34-.54-2.13 0-.78.175-1.48.525-2.1.36-.63.85-1.12 1.47-1.47.63-.35 1.34-.525 2.13-.525.75 0 1.43.165 2.04.495.62.32 1.11.785 1.47 1.395.36.6.54 1.305.54 2.115l-6.135 1.2c.19.46.495.81.915 1.05.42.24.925.36 1.515.36zM75.286 7.4c-.69 0-1.25.225-1.68.675-.42.45-.63 1.055-.63 1.815v.015l4.53-.87a2.118 2.118 0 00-.795-1.185c-.39-.3-.865-.45-1.425-.45zm8.326 6.705c-.65 0-1.285-.085-1.905-.255-.62-.17-1.115-.385-1.485-.645l.72-1.425c.36.24.79.435 1.29.585.51.14 1.01.21 1.5.21 1.12 0 1.68-.295 1.68-.885 0-.28-.145-.475-.435-.585-.28-.11-.735-.215-1.365-.315-.66-.1-1.2-.215-1.62-.345-.41-.13-.77-.355-1.08-.675-.3-.33-.45-.785-.45-1.365 0-.76.315-1.365.945-1.815.64-.46 1.5-.69 2.58-.69.55 0 1.1.065 1.65.195.55.12 1 .285 1.35.495l-.72 1.425c-.68-.4-1.445-.6-2.295-.6-.55 0-.97.085-1.26.255-.28.16-.42.375-.42.645 0 .3.15.515.45.645.31.12.785.235 1.425.345.64.1 1.165.215 1.575.345.41.13.76.35 1.05.66.3.31.45.75.45 1.32 0 .75-.325 1.35-.975 1.8-.65.45-1.535.675-2.655.675zm5.245-8.115h1.875V14h-1.875V5.99zm.945-1.32a1.22 1.22 0 01-.855-.315c-.23-.22-.345-.49-.345-.81 0-.32.115-.585.345-.795.23-.22.515-.33.855-.33.34 0 .625.105.855.315.23.2.345.455.345.765 0 .33-.115.61-.345.84-.22.22-.505.33-.855.33zm11.341 1.32v6.795c0 2.82-1.44 4.23-4.32 4.23-.77 0-1.5-.1-2.19-.3-.69-.19-1.26-.47-1.71-.84l.84-1.41c.35.29.79.52 1.32.69.54.18 1.085.27 1.635.27.88 0 1.525-.2 1.935-.6.41-.4.615-1.01.615-1.83v-.42c-.32.35-.71.615-1.17.795-.46.18-.965.27-1.515.27-.76 0-1.45-.16-2.07-.48a3.784 3.784 0 01-1.455-1.38c-.35-.59-.525-1.265-.525-2.025s.175-1.43.525-2.01c.36-.59.845-1.045 1.455-1.365.62-.32 1.31-.48 2.07-.48.58 0 1.105.095 1.575.285.48.19.88.48 1.2.87V5.99h1.785zm-4.275 6.06c.71 0 1.29-.21 1.74-.63.46-.43.69-.985.69-1.665 0-.67-.23-1.215-.69-1.635-.45-.42-1.03-.63-1.74-.63-.72 0-1.31.21-1.77.63-.45.42-.675.965-.675 1.635 0 .68.225 1.235.675 1.665.46.42 1.05.63 1.77.63zm11.285-6.15c1.01 0 1.82.295 2.43.885.61.59.915 1.465.915 2.625V14h-1.875V9.65c0-.7-.165-1.225-.495-1.575-.33-.36-.8-.54-1.41-.54-.69 0-1.235.21-1.635.63-.4.41-.6 1.005-.6 1.785V14h-1.875V5.99h1.785v1.035c.31-.37.7-.65 1.17-.84.47-.19 1-.285 1.59-.285z" fill="#BD7048"/></svg>