<svg width="152" height="152" fill="none" xmlns="http://www.w3.org/2000/svg"><circle cx="76" cy="76" r="76" fill="url(#paint0_radial_542_311)"/><path d="M76.5 32.188c-23.919 0-43.313 19.393-43.313 43.312 0 23.919 19.394 43.312 43.313 43.312 23.919 0 43.312-19.393 43.312-43.312 0-23.919-19.393-43.313-43.312-43.313zm0 79.277c-19.858 0-35.965-16.107-35.965-35.965 0-19.858 16.107-35.965 35.965-35.965 19.858 0 35.965 16.107 35.965 35.965 0 19.858-16.107 35.965-35.965 35.965z" fill="#fff"/><path d="M96.551 74.253L67.924 53.467a1.537 1.537 0 00-2.446 1.247v41.572c0 1.267 1.431 1.982 2.447 1.247L96.55 76.747a1.538 1.538 0 000-2.494zM71.647 87.208V63.792L87.763 75.5 71.647 87.208z" fill="#fff"/><defs><radialGradient id="paint0_radial_542_311" cx="0" cy="0" r="1" gradientUnits="userSpaceOnUse" gradientTransform="matrix(0 76 -76 0 76 76)"><stop stop-color="#BD7048"/><stop offset="0" stop-color="#BD7048" stop-opacity="0"/><stop offset="1" stop-color="#BD7048"/></radialGradient></defs></svg>