<svg width="34" height="34" fill="none" xmlns="http://www.w3.org/2000/svg"><path fill-rule="evenodd" clip-rule="evenodd" d="M17.794 18.223c3.043.47 3.454 2.27 3.7 3.946l.041.286.028.194.148.986c.29 1.883.895 5.791.895 7.83 0 .51-.045.902-.127 1.117-.136.331-.534.649-1.083.914-1.33.327-2.719.504-4.15.504-.151 0-.3-.007-.45-.012-.578-.164-1.013-.438-1.243-.813-.695-1.131-.737-3.651-.75-6.596l-.002-.342-.006-.883c-.022-3.117-.042-5.805 1.09-6.77.44-.371 1.063-.494 1.91-.36zm-6.634 6.788c.66-.037 1.084 3.206 1.169 5.666.06 1.712-.12 2.416-.407 2.669a16.286 16.286 0 01-.96-.353c-.21-.382-.37-.982-.472-1.768-.311-2.47-.04-6.17.67-6.214zm16.531 4.847a2.097 2.097 0 01-.17.546 16.19 16.19 0 01-1.777 1.241c-.197.034-.373.01-.459-.134-.822-1.445-1.13-5.975-.335-6.369 1.037-.5 2.895 3.933 2.741 4.716zM17.001 0c9.258 0 16.787 7.332 16.995 16.455l.004.316v.145a16.672 16.672 0 01-4.032 10.81c-.09-.045-.256-.194-.556-.642-.31-.45-2.982-4.564-2.982-9.279 0-.925 1.333-2.37 2.513-3.639.883-.954 1.718-1.855 2.026-2.563.392-.913.118-1.55-.316-1.767-.393-.192-.982-.052-1.396.683-.678 1.189-.896 1.411-1.886 2.207-.974.795-2.523 1.595-2.523.56 0-.56.863-1.827 1.289-2.715.435-.898-.034-1.548-.933-1.548-1.764 0-2.936 2.248-2.936 3.027 0 .778.378.888.378 1.795 0 .913-1.937 2.097-3.76 2.097-1.756 0-2.775-.355-3.197-1.357l-.053-.14-.122-.361c-.433-1.265-.743-2.182-1.284-3.14-.287-.507-.73-.858-1.112-1.167-.5-.389-.76-.747-.814-1.014-.05-.264-.077-.763.778-1.914.854-1.143.973-2.007.546-2.453-.154-.159-.418-.26-.757-.26-.6 0-1.433.317-2.291 1.19-1.335 1.367-.577 2.666-.577 3.236 0 .569-.245.891-1.045 1.666-.807.778-1.085 1.446-1.178 4.127-.035 1.382-.278 2.177-.497 2.883-.189.618-.362 1.2-.372 2.039-.015.93.14 1.53.321 2.222.178.64.366 1.372.487 2.598.192 1.898.125 3.5-.224 5.139l-.093.41-.022.118c-.072.288-.157.638-.272.769C2.806 27.477 0 22.486 0 16.843 0 7.544 7.611 0 17 0z" fill="#fff"/></svg>