<svg width="41" height="41" fill="none" xmlns="http://www.w3.org/2000/svg"><path d="M28.12 13.592a.353.353 0 00-.351-.352l-2.9.013-4.369 5.208-4.364-5.203-2.905-.013a.35.35 0 00-.351.351c0 .084.03.163.083.229l5.718 6.811-5.718 6.807a.353.353 0 00.268.58l2.905-.013 4.364-5.207 4.364 5.203 2.9.013a.35.35 0 00.352-.351.365.365 0 00-.084-.229l-5.708-6.807 5.717-6.812a.353.353 0 00.08-.228z" fill="#1B1B1B"/><path d="M20.5.856C9.628.856.812 9.672.812 20.544.813 31.416 9.629 40.23 20.5 40.23c10.872 0 19.688-8.815 19.688-19.687C40.188 9.672 31.371.856 20.5.856zm0 36.036c-9.026 0-16.348-7.322-16.348-16.348S11.474 4.196 20.5 4.196s16.348 7.322 16.348 16.348S29.526 36.892 20.5 36.892z" fill="#1B1B1B"/></svg>