<svg width="56" height="56" fill="none" xmlns="http://www.w3.org/2000/svg"><path d="M38.063 26.25H29.75v-8.313a.439.439 0 00-.438-.437h-2.625a.439.439 0 00-.437.438v8.312h-8.313a.439.439 0 00-.437.438v2.625c0 .24.197.437.438.437h8.312v8.313c0 .24.197.437.438.437h2.625c.24 0 .437-.197.437-.438V29.75h8.313c.24 0 .437-.197.437-.438v-2.625a.439.439 0 00-.438-.437z" fill="#2E2E2E"/><path d="M28 3.5C14.47 3.5 3.5 14.47 3.5 28S14.47 52.5 28 52.5 52.5 41.53 52.5 28 41.53 3.5 28 3.5zm0 44.844C16.767 48.344 7.656 39.233 7.656 28S16.767 7.656 28 7.656 48.344 16.767 48.344 28 39.233 48.344 28 48.344z" fill="#2E2E2E"/></svg>