<svg width="80" height="80" fill="none" xmlns="http://www.w3.org/2000/svg"><g clip-path="url(#clip0_13_456)" fill="#BD7048"><path d="M48.353 45.878L42.475 40l5.878-5.878a.439.439 0 000-.618l-1.857-1.857a.439.439 0 00-.618 0L40 37.525l-5.878-5.878a.439.439 0 00-.618 0l-1.857 1.857a.439.439 0 000 .618L37.525 40l-5.878 5.878a.439.439 0 000 .619l1.857 1.856c.17.17.448.17.618 0L40 42.475l5.878 5.878c.17.17.448.17.618 0l1.857-1.856a.439.439 0 000-.62z"/><path d="M57.324 22.676c-9.567-9.567-25.081-9.567-34.648 0-9.567 9.567-9.567 25.082 0 34.648 9.567 9.567 25.081 9.567 34.648 0 9.567-9.566 9.567-25.08 0-34.648zm-31.71 31.71c-7.942-7.943-7.942-20.828 0-28.77 7.944-7.944 20.828-7.944 28.771 0 7.943 7.942 7.943 20.827 0 28.77-7.943 7.942-20.827 7.942-28.77 0z"/></g><defs><clipPath id="clip0_13_456"><path fill="#fff" transform="rotate(45 19.514 48.485)" d="M0 0h56v56H0z"/></clipPath></defs></svg>