<svg width="36" height="41" fill="none" xmlns="http://www.w3.org/2000/svg"><path fill-rule="evenodd" clip-rule="evenodd" d="M35.875 11.531v24.344A5.125 5.125 0 0130.75 41h-2.563v-2.563h2.563a2.563 2.563 0 002.563-2.562V11.531h-5.126a3.843 3.843 0 01-3.843-3.844V2.563H10.25a2.562 2.562 0 00-2.563 2.563v23.063H5.126V5.125A5.125 5.125 0 0110.25 0h14.094l11.531 11.531zM4.1 30.366H0v10.247h2.027v-3.439h2.058c.735 0 1.36-.146 1.875-.443.52-.3.918-.705 1.187-1.215a3.64 3.64 0 00.412-1.735c0-.64-.135-1.22-.405-1.734a3.013 3.013 0 00-1.178-1.223c-.513-.307-1.135-.458-1.876-.458zm1.397 3.415c.009.338-.066.673-.218.974a1.47 1.47 0 01-.61.618c-.298.147-.628.22-.961.21H2.019V31.98h1.692c.558 0 .996.154 1.312.464.315.312.474.758.474 1.337zm3.118-3.415v10.247h3.741c1.028 0 1.881-.205 2.558-.607a3.716 3.716 0 001.524-1.766c.334-.769.503-1.696.503-2.778 0-1.076-.167-1.993-.503-2.754a3.654 3.654 0 00-1.509-1.743c-.676-.4-1.535-.6-2.575-.6H8.615zm2.027 1.652h1.443c.635 0 1.153.129 1.56.39.423.276.742.686.907 1.163.203.515.303 1.159.303 1.93a5.892 5.892 0 01-.174 1.517c-.092.391-.263.76-.503 1.081a2.05 2.05 0 01-.856.646c-.395.148-.815.22-1.237.21h-1.443v-6.937zm9.591 4.518v4.077H18.21V30.366h6.53v1.673h-4.506V34.9h4.116v1.635h-4.116z" fill="#BD7048"/></svg>