<svg width="44" height="45" fill="none" xmlns="http://www.w3.org/2000/svg"><rect x="44" y="45" width="44" height="45" rx="22" transform="rotate(180 44 45)" fill="#fff"/><path fill-rule="evenodd" clip-rule="evenodd" d="M27 22c0 .19-.072.371-.201.505a.675.675 0 01-.486.21h-7.965l2.952 3.064a.73.73 0 01.201.506.73.73 0 01-.201.506.676.676 0 01-.487.209.675.675 0 01-.486-.21l-4.125-4.284A.714.714 0 0116 22a.738.738 0 01.202-.506l4.124-4.285a.675.675 0 01.487-.209c.183 0 .358.075.487.21a.73.73 0 01.201.505.73.73 0 01-.201.506l-2.952 3.065h7.965c.182 0 .357.075.486.209A.729.729 0 0127 22z" fill="#262626"/></svg>