<svg width="72" height="17" fill="none" xmlns="http://www.w3.org/2000/svg"><g opacity=".7"><path fill-rule="evenodd" clip-rule="evenodd" d="M8.552 9.093c1.462.228 1.66 1.1 1.778 1.913l.02.139.013.094.072.478c.139.913.43 2.808.43 3.797 0 .247-.022.437-.062.54-.065.161-.256.316-.52.444a8.264 8.264 0 01-1.994.244c-.073 0-.145-.003-.217-.005-.278-.08-.487-.213-.597-.395-.334-.548-.354-1.77-.361-3.198v-.165l-.003-.428c-.011-1.512-.02-2.815.524-3.283.21-.18.51-.24.917-.175zm-3.188 3.291c.316-.018.52 1.555.561 2.747.029.83-.057 1.172-.195 1.294a7.79 7.79 0 01-.461-.171c-.101-.185-.178-.476-.227-.857-.15-1.198-.02-2.992.322-3.013zm7.944 2.35a.989.989 0 01-.082.265c-.27.22-.555.42-.853.602-.095.016-.18.005-.22-.066-.396-.7-.544-2.896-.162-3.087.498-.243 1.391 1.906 1.317 2.286zM8.171.258a8.168 8.168 0 018.167 7.978l.002.153v.07a8.124 8.124 0 01-1.937 5.242c-.044-.023-.123-.095-.267-.312-.15-.218-1.434-2.213-1.434-4.498 0-.45.641-1.15 1.208-1.765.424-.463.826-.9.974-1.243.188-.442.056-.751-.152-.856-.189-.093-.472-.025-.67.33-.327.577-.432.685-.907 1.07-.469.386-1.213.774-1.213.272 0-.271.415-.886.62-1.316.209-.436-.017-.75-.449-.75-.848 0-1.41 1.09-1.41 1.467s.18.43.18.87c0 .443-.93 1.017-1.807 1.017-.843 0-1.333-.172-1.536-.658l-.026-.068-.058-.175c-.208-.613-.357-1.058-.617-1.522-.138-.246-.35-.416-.535-.566-.24-.189-.365-.362-.39-.492-.025-.128-.038-.37.373-.928.41-.554.468-.973.263-1.189-.075-.077-.201-.126-.364-.126-.288 0-.689.154-1.101.577-.642.663-.278 1.292-.278 1.569 0 .276-.117.432-.502.808-.388.377-.521.7-.566 2A4.62 4.62 0 013.5 8.616c-.09.3-.174.582-.178.989-.008.451.067.742.154 1.077.085.31.176.666.234 1.26.092.92.06 1.697-.108 2.491l-.045.2-.01.057c-.035.14-.075.309-.13.372A8.15 8.15 0 010 8.424 8.169 8.169 0 018.17.258z" fill="#F14635"/><path d="M47.545 5.91c.808 0 1.437.288 1.885.866.449.577.673 1.371.673 2.381v.094c0 .987-.23 1.775-.688 2.365-.459.589-1.078.884-1.858.884-.602 0-1.098-.214-1.486-.64v3.206h-2.043v-9.04h1.91l.06.588c.393-.47.908-.705 1.547-.705zm-14.247 0c.837 0 1.497.197 1.982.592.485.396.734.938.746 1.628v2.813c.008.584.101 1.03.279 1.34v.1h-2.043a2.19 2.19 0 01-.194-.57c-.376.457-.901.687-1.576.687-.619 0-1.144-.181-1.577-.544-.432-.362-.648-.817-.648-1.365 0-.69.262-1.21.788-1.563.525-.352 1.289-.528 2.291-.528h.63v-.335c0-.584-.26-.875-.781-.875-.485 0-.728.23-.728.693h-2.043c0-.615.27-1.114.81-1.498.54-.384 1.227-.576 2.064-.576zm6.65 0c.865 0 1.56.19 2.086.569.526.38.788.88.788 1.498h-2.049c0-.51-.277-.764-.83-.764a.84.84 0 00-.54.173.53.53 0 00-.218.432c0 .176.088.32.266.429.178.11.462.2.852.27.39.07.733.155 1.028.253.986.329 1.479.918 1.479 1.768 0 .58-.266 1.051-.797 1.415-.532.365-1.22.547-2.064.547-.562 0-1.064-.098-1.504-.294-.44-.196-.784-.462-1.03-.799-.247-.337-.37-.691-.37-1.063h1.91c.007.294.108.508.302.643s.443.203.746.203c.279 0 .488-.055.627-.165a.52.52 0 00.21-.428c0-.169-.091-.304-.273-.406-.182-.102-.528-.207-1.037-.317-.51-.11-.93-.254-1.26-.432-.332-.178-.585-.394-.759-.649a1.516 1.516 0 01-.26-.875c0-.583.248-1.064.745-1.442.497-.378 1.148-.567 1.953-.567zm-15.35-2.561V7.6l2.892-4.252h2.631L26.89 7.613l2.983 4.77H27.35l-1.88-3.184-.873.928v2.255H22.47V3.35h2.128zm28.81 2.678v6.355h-2.05V6.027h2.05zm18.016 0v1.069l-2.921 3.759h2.988v1.527H65.92v-1.104l2.91-3.724h-3.428l1.365-1.527h4.657zm-15.277 4.305a.997.997 0 011.011.984c0 .543-.452.983-1.011.983-.559 0-1.012-.44-1.012-.983 0-.544.453-.984 1.012-.984zm4.745-6.984v4.747l.206-.262 1.544-1.838h2.456l-2.304 2.589 2.456 3.705h-2.346l-1.435-2.344-.577.552v1.792h-2.05v-8.94h2.05zM33.977 9.557h-.594c-.712 0-1.067.31-1.067.928 0 .18.062.326.188.438a.693.693 0 00.479.167c.254 0 .465-.053.633-.159a1.01 1.01 0 00.36-.358V9.557zm13.065-2.12c-.485 0-.809.168-.97.505v2.502c.177.352.505.528.982.528.65 0 .986-.544 1.006-1.633v-.211c0-1.128-.34-1.692-1.018-1.692zm5.368-4.089c.559 0 1.012.462 1.012 1.031 0 .57-.453 1.03-1.012 1.03A1.021 1.021 0 0151.4 4.38c0-.57.453-1.03 1.011-1.03z" fill="#000"/></g></svg>