<svg width="29" height="32" fill="none" xmlns="http://www.w3.org/2000/svg"><g clip-path="url(#clip0_2_81)"><path d="M14.388 1.344A2.437 2.437 0 0117.834.98l7.952 6.493a2.437 2.437 0 01.609 3.035 7.313 7.313 0 00-2.145-.32h-.731l.726-.828-4.188-3.42-3.453 4.25h-3.142l4.706-5.79-1.876-1.534-5.846 7.322h-3.12l7.062-8.843zm6.206 21.031a1.218 1.218 0 100 2.438h2.437a1.218 1.218 0 100-2.438h-2.437zM2.312 11.406a1.218 1.218 0 011.22-1.219h1.36L6.828 7.75H3.531a3.656 3.656 0 00-3.656 3.656v14.625a6.094 6.094 0 006.094 6.094H24.25a4.875 4.875 0 004.875-4.875V17.5a4.875 4.875 0 00-4.875-4.875H3.531a1.219 1.219 0 01-1.219-1.219zm0 14.625V14.855c.38.134.793.207 1.22.207H24.25a2.438 2.438 0 012.438 2.438v9.75a2.438 2.438 0 01-2.438 2.438H5.969a3.656 3.656 0 01-3.657-3.657z" fill="#BD7048"/></g><defs><clipPath id="clip0_2_81"><path fill="#fff" d="M0 0h29v32H0z"/></clipPath></defs></svg>