<svg width="31" height="31" fill="none" xmlns="http://www.w3.org/2000/svg"><path d="M12.495 21.05a1.21 1.21 0 001.97 0l8.02-11.122a.306.306 0 00-.248-.484h-1.786c-.388 0-.758.187-.986.507l-5.984 8.303-2.711-3.763a1.218 1.218 0 00-.987-.507H7.997a.306.306 0 00-.247.484l4.745 6.581z" fill="#BD7048"/><path d="M29.516.266H1.484C.81.266.266.81.266 1.484v28.032c0 .674.544 1.218 1.218 1.218h28.032c.674 0 1.218-.544 1.218-1.218V1.484c0-.674-.544-1.218-1.218-1.218zm-1.524 27.726H3.008V3.008h24.984v24.984z" fill="#BD7048"/></svg>