<svg width="38" height="34" fill="none" xmlns="http://www.w3.org/2000/svg"><path d="M37.605 12.703h-11a.345.345 0 00-.343.344v2.062c0 .19.154.344.343.344h11a.345.345 0 00.344-.344v-2.062a.345.345 0 00-.343-.344zm-5.757 5.844h-5.242a.345.345 0 00-.344.344v2.062c0 .19.154.344.343.344h5.243a.344.344 0 00.343-.344v-2.062a.345.345 0 00-.343-.344zm-14.339-9.69h-1.86a.48.48 0 00-.482.482v10.656c0 .155.073.296.198.387l6.398 4.666a.48.48 0 00.67-.103l1.105-1.508v-.005a.48.48 0 00-.108-.67l-5.444-3.936V9.34a.477.477 0 00-.477-.482z" fill="#BD7048"/><path d="M31.581 23.957h-2.483a.707.707 0 00-.598.33 13.791 13.791 0 01-1.912 2.394 13.63 13.63 0 01-9.68 4.009 13.63 13.63 0 01-9.68-4.009A13.63 13.63 0 013.217 17a13.629 13.629 0 014.009-9.68 13.629 13.629 0 019.68-4.01 13.629 13.629 0 019.68 4.009c.732.73 1.368 1.53 1.913 2.393.13.207.357.331.598.331h2.483a.393.393 0 00.353-.571A16.804 16.804 0 0017.109.204C7.824.088.111 7.689.094 16.966.077 26.26 7.609 33.8 16.904 33.8a16.807 16.807 0 0015.03-9.273.394.394 0 00-.353-.571z" fill="#BD7048"/></svg>